<?xml version="1.0" encoding="UTF-8" standalone="no" ?>
<!DOCTYPE svg PUBLIC "-//W3C//DTD SVG 1.1//EN" "http://www.w3.org/Graphics/SVG/1.1/DTD/svg11.dtd">
<svg xmlns="http://www.w3.org/2000/svg" xmlns:xlink="http://www.w3.org/1999/xlink" version="1.1" width="1080" height="1080" viewBox="0 0 1080 1080" xml:space="preserve">
<desc>Created with Fabric.js 5.2.4</desc>
<defs>
</defs>
<g transform="matrix(1 0 0 1 540 540)" id="2aee1927-3996-46a5-b321-d36e6b79de8e"  >
<rect style="stroke: none; stroke-width: 1; stroke-dasharray: none; stroke-linecap: butt; stroke-dashoffset: 0; stroke-linejoin: miter; stroke-miterlimit: 4; fill: rgb(255,255,255); fill-rule: nonzero; opacity: 1; visibility: hidden;" vector-effect="non-scaling-stroke"  x="-540" y="-540" rx="0" ry="0" width="1080" height="1080" />
</g>
<g transform="matrix(1 0 0 1 540 540)" id="60db1334-ade0-403c-b6e8-5907ca524e49"  >
</g>
<g transform="matrix(2.62 0 0 2.55 540 533.28)"  >
<g style="" vector-effect="non-scaling-stroke"   >
		<g transform="matrix(1 0 0 1 -40.39 -28.92)"  >
<path style="stroke: none; stroke-width: 0; stroke-dasharray: none; stroke-linecap: butt; stroke-dashoffset: 0; stroke-linejoin: miter; stroke-miterlimit: 4; fill: rgb(0,0,0); fill-rule: nonzero; opacity: 1;" vector-effect="non-scaling-stroke"  transform=" translate(-160.71, -156.37)" d="M 189.48 168.88 C 188.2 166.79999999999998 184.89999999999998 163.53 182.89 162.23 C 183.54 161.41 184.16 160.67 184.77999999999997 159.67999999999998 C 185.93999999999997 157.84999999999997 186.29999999999998 156.89 186.72999999999996 155.68999999999997 C 186.96999999999997 155.00999999999996 187.57999999999996 153.45999999999998 187.00999999999996 152.53999999999996 C 185.96999999999997 150.86999999999998 183.00999999999996 150.55999999999997 179.99999999999997 149.92999999999995 C 179.64999999999998 149.85999999999996 177.63999999999996 149.61999999999995 177.63999999999996 149.61999999999995 C 177.63999999999996 149.61999999999995 177.43999999999997 148.39999999999995 177.35999999999996 147.16999999999996 C 177.32999999999996 146.69999999999996 177.23999999999995 146.11999999999995 177.02999999999994 145.35999999999996 C 176.81999999999994 144.59999999999997 176.55999999999995 143.67999999999995 175.60999999999996 143.16999999999996 C 174.57999999999996 142.61999999999995 172.99999999999994 142.99999999999997 172.17999999999995 143.35999999999996 C 170.94999999999996 143.88999999999996 170.17999999999995 144.27999999999994 169.10999999999996 144.95999999999995 C 168.10999999999996 142.54999999999995 166.60999999999996 139.61999999999995 164.15999999999997 137.05999999999995 C 163.59999999999997 136.47999999999993 162.20999999999998 135.05999999999995 161.08999999999997 135.07999999999996 C 159.86999999999998 135.10999999999996 158.01999999999998 136.92999999999995 157.45999999999998 137.63999999999996 C 155.17999999999998 140.51999999999995 153.83999999999997 142.98999999999995 153.08999999999997 144.64999999999995 C 151.87999999999997 143.80999999999995 151.17999999999998 143.25999999999996 149.73999999999998 142.59999999999994 C 148.92999999999998 142.22999999999993 147.57 141.79999999999993 146.51999999999998 142.32999999999993 C 145.55999999999997 142.81999999999994 144.92 144.34999999999994 144.71999999999997 145.10999999999993 C 144.32999999999998 146.58999999999992 144.19999999999996 147.53999999999994 144.07999999999998 148.91999999999993 C 144.01 148.91999999999993 134.95999999999998 149.44999999999993 134.02999999999997 151.91999999999993 C 133.64999999999998 152.92999999999992 134.59999999999997 155.52999999999994 134.97999999999996 156.21999999999994 C 136.32999999999996 158.64999999999995 137.08999999999997 160.27999999999994 138.32999999999996 161.76999999999995 C 136.88999999999996 162.38999999999996 134.15999999999997 164.75999999999996 131.92999999999995 168.16999999999996 C 131.43999999999994 168.91999999999996 130.87999999999994 169.55999999999995 131.16999999999996 170.68999999999997 C 131.33999999999995 171.33999999999997 132.51999999999995 172.45999999999998 133.86999999999995 173.28999999999996 C 136.11999999999995 174.66999999999996 136.32999999999996 174.61999999999998 137.83999999999995 175.25999999999996 C 142.29999999999995 177.14999999999995 148.74999999999994 177.08999999999997 151.19999999999993 176.33999999999997 C 153.08999999999992 175.75999999999996 155.45999999999992 174.47999999999996 156.94999999999993 173.45 C 157.73999999999992 174.2 158.86999999999992 174.63 160.26999999999992 174.63 C 161.4699999999999 174.63 162.6899999999999 174.15 163.4699999999999 173.57999999999998 C 166.52999999999992 175.88 169.1299999999999 177.32999999999998 174.07999999999993 177.61999999999998 C 179.73999999999992 177.95999999999998 184.98999999999992 175.64999999999998 188.30999999999992 173.60999999999999 C 189.01999999999992 173.17 190.16999999999993 172.17999999999998 190.30999999999992 171.08999999999997 C 190.38999999999993 170.45999999999998 190.26999999999992 170.14 189.48999999999992 168.86999999999998 Z M 176.39 159.98 C 177.1 157.92999999999998 177.64999999999998 156.2 177.29 154.82999999999998 C 179.39 154.73 180.69 155.13 180.69 155.13 C 180.69 155.13 179.69 159.12 175.45 161.78 C 175.79999999999998 161.24 176.14999999999998 160.65 176.38 159.98 Z M 144.17999999999998 154.23 C 143.77999999999997 155.59 143.89999999999998 157.47 144.60999999999999 159.39 C 144.85999999999999 160.04999999999998 145.16 160.66 145.48999999999998 161.20999999999998 C 141.23 157.7 140.52999999999997 154.71999999999997 140.52999999999997 154.71999999999997 C 140.24999999999997 154.73999999999998 142.07999999999998 154.06999999999996 144.16999999999996 154.22999999999996 Z M 149.08999999999997 171.14999999999998 C 143.43999999999997 172.40999999999997 138.09999999999997 169.06999999999996 138.09999999999997 169.06999999999996 C 138.09999999999997 169.06999999999996 140.02999999999997 167.58999999999997 142.40999999999997 165.50999999999996 C 143.97999999999996 167.39999999999995 146.54999999999995 168.16999999999996 151.91999999999996 169.81999999999996 C 150.55999999999995 170.75999999999996 150.65999999999997 170.78999999999996 149.08999999999995 171.13999999999996 Z M 159.70999999999998 168.51999999999998 C 159.70999999999998 168.51999999999998 153.35999999999999 165.98999999999998 150.71999999999997 160.2 C 148.33999999999997 154.98 149.44999999999996 148.45999999999998 149.44999999999996 148.45999999999998 C 149.44999999999996 148.45999999999998 155.42999999999995 151.45999999999998 158.06999999999996 156.37999999999997 C 161.11999999999998 162.07999999999996 159.70999999999995 168.50999999999996 159.70999999999995 168.50999999999996 Z M 160.7 150.92999999999998 C 159.83999999999997 149.60999999999999 159.33999999999997 148.98 157.57 147.59999999999997 C 157.79 146.81999999999996 159.06 143.87999999999997 161.06 141.99999999999997 C 162.12 142.97999999999996 163.65 145.32999999999998 164.41 147.83999999999997 C 163.35999999999999 148.65999999999997 161.79999999999998 149.53999999999996 160.7 150.92999999999998 Z M 165 166.42999999999998 C 165.09 165.73 165.67 159.10999999999999 163.72 156.14 C 167.18 151.26999999999998 172.26 149.14 172.26 149.14 C 172.26 149.14 173.04 157.48999999999998 169.04999999999998 162.45 C 167.35 164.57 166.73 165.23 164.99999999999997 166.42999999999998 Z M 168.59 170.18999999999997 C 173.98 168.87999999999997 176.79 168.04999999999998 178.65 166.25999999999996 C 181.65 167.82999999999996 183.44 169.84999999999997 183.58 170.03999999999996 C 183.58 170.03999999999996 176.08 174.64999999999998 168.59 170.18999999999997 Z" stroke-linecap="round" />
</g>
		<g transform="matrix(1 0 0 1 -41.42 -3.34)"  >
<path style="stroke: none; stroke-width: 0; stroke-dasharray: none; stroke-linecap: butt; stroke-dashoffset: 0; stroke-linejoin: miter; stroke-miterlimit: 4; fill: rgb(0,0,0); fill-rule: nonzero; opacity: 1;" vector-effect="non-scaling-stroke"  transform=" translate(-159.68, -181.95)" d="M 167.71 180.61 C 167.21 179.84 166.17000000000002 179.61 165.36 180.05 C 164.15 180.70000000000002 162.26000000000002 181.31 160.32000000000002 181.13000000000002 C 158.40000000000003 180.95000000000002 156.68000000000004 180.35000000000002 155.83 179.25000000000003 C 154.98 178.15000000000003 153.13000000000002 178.17000000000002 152.09 179.15000000000003 C 151.6 179.61000000000004 151.33 180.42000000000004 151.33 181.06000000000003 C 151.33 183.19000000000003 154.68 185.48000000000002 159.43 185.48000000000002 C 164.18 185.48000000000002 168.03 183.75000000000003 168.03 181.62 C 168.03 181.28 167.92 180.94 167.72 180.63 Z" stroke-linecap="round" />
</g>
		<g transform="matrix(1 0 0 1 -181.6 -22.95)"  >
<path style="stroke: none; stroke-width: 0; stroke-dasharray: none; stroke-linecap: butt; stroke-dashoffset: 0; stroke-linejoin: miter; stroke-miterlimit: 4; fill: rgb(0,0,0); fill-rule: nonzero; opacity: 1;" vector-effect="non-scaling-stroke"  transform=" translate(-19.5, -162.34)" d="M 34.84 174.05 C 35.190000000000005 174.25 36.2 174.87 36.1 175.42000000000002 C 36.08 175.54000000000002 36.01 175.65 35.940000000000005 175.76000000000002 C 33.32000000000001 179.79000000000002 27.990000000000006 182.13000000000002 23.370000000000005 182.39000000000001 C 19.910000000000004 182.59 15.840000000000003 182.08 12.670000000000005 180.61 C 10.670000000000005 179.68 8.780000000000005 178.19000000000003 7.340000000000005 176.48000000000002 C 4.210000000000005 172.76000000000002 2.7900000000000054 167.14000000000001 2.900000000000005 162.36 C 2.940000000000005 160.67000000000002 3.2400000000000047 158.46 3.5700000000000047 156.81 C 4.270000000000005 153.29 6.100000000000005 150.01 8.620000000000005 147.45 C 11.290000000000004 144.73 15.350000000000005 143.14 19.090000000000003 142.47 C 19.470000000000002 142.4 20.990000000000002 142.26 21.380000000000003 142.25 C 24.550000000000004 142.17 28.14 142.85 31.380000000000003 144.44 C 32.93 145.2 34.06 146.37 35.03 147.79 C 35.63 148.66 36.02 149.79 35.64 150.76999999999998 C 35.160000000000004 152.01 34.15 152.65999999999997 32.84 152.90999999999997 C 32.330000000000005 153.00999999999996 30.700000000000003 153.19999999999996 30.210000000000004 153.03999999999996 C 29.540000000000003 152.81999999999996 29.510000000000005 152.23999999999995 29.320000000000004 151.82999999999996 C 28.580000000000005 150.27999999999994 27.210000000000004 149.05999999999995 25.640000000000004 148.36999999999995 C 22.710000000000004 147.07999999999996 20.050000000000004 147.26999999999995 17.290000000000006 148.49999999999994 C 14.530000000000008 149.72999999999993 12.230000000000008 153.20999999999995 11.330000000000005 156.68999999999994 C 9.710000000000004 162.92999999999995 10.910000000000005 172.33999999999995 16.180000000000007 175.46999999999994 C 20.700000000000006 178.15999999999994 26.210000000000008 177.64999999999995 30.870000000000005 174.35999999999993 C 31.370000000000005 174.00999999999993 32.410000000000004 173.40999999999994 33.03 173.28999999999994 C 33.620000000000005 173.16999999999993 34.35 173.75999999999993 34.85 174.04999999999993 Z" stroke-linecap="round" />
</g>
		<g transform="matrix(1 0 0 1 -101.63 -24.08)"  >
<path style="stroke: none; stroke-width: 0; stroke-dasharray: none; stroke-linecap: butt; stroke-dashoffset: 0; stroke-linejoin: miter; stroke-miterlimit: 4; fill: rgb(0,0,0); fill-rule: nonzero; opacity: 1;" vector-effect="non-scaling-stroke"  transform=" translate(-99.47, -161.21)" d="M 116.18 177.9 C 116.49000000000001 178.78 117.09 178.34 116.89 179.48000000000002 C 116.8 180.02 115.74 180.69000000000003 115.23 180.75000000000003 C 114.4 180.84000000000003 113.52000000000001 180.99000000000004 112.7 181.10000000000002 C 110.94 181.33 109.49000000000001 180.64000000000001 108.98 178.87000000000003 C 108.74000000000001 178.04000000000002 108.74000000000001 177.17000000000004 108.73 176.31000000000003 C 108.66000000000001 167.49000000000004 108.68 158.66000000000003 108.63000000000001 149.84000000000003 C 108.63000000000001 149.08000000000004 108.63000000000001 148.32000000000002 108.62 147.56000000000003 C 108.62 147.26000000000002 108.62 146.97000000000003 108.62 146.67000000000004 C 108.62 146.67000000000004 95.76 146.19000000000005 95.76 146.59000000000003 C 95.76 146.59000000000003 95.84 158.70000000000005 95.84 158.70000000000005 C 95.83 162.20000000000005 95.65 165.73000000000005 94.95 169.16000000000005 C 93.92 174.26000000000005 91.61 180.73000000000005 85.44 180.96000000000006 C 84.21 181.01000000000008 82.98 180.66000000000005 82.39999999999999 179.49000000000007 C 82.05 178.77000000000007 81.55999999999999 176.47000000000006 82.88 176.35000000000008 C 84.08999999999999 176.24000000000007 84.22999999999999 176.13000000000008 84.81 175.63000000000008 C 88.34 172.17000000000007 89.12 166.16000000000008 89.12 159.10000000000008 L 88.62 142.7800000000001 C 88.58 142.35000000000008 88.9 141.57000000000008 89.33 141.57000000000008 L 114.11 141.27000000000007 C 114.5 141.27000000000007 115.53 141.27000000000007 115.73 142.31000000000006 C 116.4 155.55000000000007 115.66000000000001 176.48000000000008 116.17 177.88000000000005 Z" stroke-linecap="round" />
</g>
		<g transform="matrix(1 0 0 1 -165.86 -20.42)"  >
<path style="stroke: none; stroke-width: 0; stroke-dasharray: none; stroke-linecap: butt; stroke-dashoffset: 0; stroke-linejoin: miter; stroke-miterlimit: 4; fill: rgb(0,0,0); fill-rule: nonzero; opacity: 1;" vector-effect="non-scaling-stroke"  transform=" translate(-35.24, -164.87)" d="M 34.66 144.27 L 35.83 185.46" stroke-linecap="round" />
</g>
		<g transform="matrix(1 0 0 1 18.06 -24.65)"  >
<path style="stroke: none; stroke-width: 0; stroke-dasharray: none; stroke-linecap: butt; stroke-dashoffset: 0; stroke-linejoin: miter; stroke-miterlimit: 4; fill: rgb(0,0,0); fill-rule: nonzero; opacity: 1;" vector-effect="non-scaling-stroke"  transform=" translate(-219.16, -160.63)" d="M 230.57 141.49 L 230.94 142.92000000000002 C 231.35 144.58 230.34 145.69000000000003 228.57999999999998 145.84 L 212.57 146.03 L 212.79999999999998 156.01 C 212.79999999999998 155.70999999999998 217.01999999999998 155.85999999999999 217.45 155.85999999999999 C 222.91 155.94 229.85 157.16 232.42999999999998 162.67 C 235.24999999999997 168.7 232.09999999999997 176.42999999999998 226.08999999999997 179.07999999999998 C 222.06999999999996 180.85 217.47999999999996 180.54 213.18999999999997 180.54 C 211.70999999999998 180.54 210.23999999999998 180.60999999999999 208.76999999999998 180.7 C 207.60999999999999 180.76999999999998 205.96999999999997 181.01 205.76 179.48999999999998 C 205.73 179.23999999999998 205.75 178.95999999999998 205.73999999999998 178.70999999999998 C 205.70999999999998 177.51999999999998 205.68999999999997 176.32 205.65999999999997 175.12999999999997 C 205.56999999999996 170.92999999999998 205.47999999999996 166.71999999999997 205.38999999999996 162.51999999999998 C 205.28999999999996 157.90999999999997 205.18999999999997 153.29999999999998 205.09999999999997 148.7 C 205.05999999999997 146.76 204.79999999999995 143.66 204.85999999999996 142.11999999999998 C 204.87999999999997 141.64 205.73999999999995 141.09999999999997 206.21999999999997 141.07999999999998 C 213.79999999999998 140.74999999999997 220.50999999999996 140.98999999999998 228.08999999999997 140.66 C 228.09999999999997 140.66 228.25999999999996 140.62 228.46999999999997 140.57 C 229.19999999999996 140.38 229.97999999999996 140.66 230.40999999999997 141.28 C 230.45999999999998 141.34 230.49999999999997 141.41 230.55999999999997 141.49 Z M 212.75 175.25 C 215.18 175.19 214.66 175.17 216.69 175.17 C 219.55 175.17 220.42 175.36999999999998 222.03 174.78 C 223.06 174.41 223.98 173.77 224.68 172.92 C 225.53 171.88 226.08 170.89999999999998 226.12 168.82999999999998 C 226.18 165.38 225.63 163.89999999999998 223.4 162.35 C 221.03 160.73 218.93 161.01999999999998 215.68 161.01999999999998 C 214.33 161.01999999999998 214.23000000000002 160.89999999999998 212.75 161.04 L 212.75 175.26 Z" stroke-linecap="round" />
</g>
		<g transform="matrix(1 0 0 1 54.07 -24.53)"  >
<path style="stroke: none; stroke-width: 0; stroke-dasharray: none; stroke-linecap: butt; stroke-dashoffset: 0; stroke-linejoin: miter; stroke-miterlimit: 4; fill: rgb(0,0,0); fill-rule: nonzero; opacity: 1;" vector-effect="non-scaling-stroke"  transform=" translate(-255.18, -160.76)" d="M 248.64 141.62 L 248.91 155.76 C 250.26 155.56 252.75 155.92 254.29999999999998 155.92 C 257.84999999999997 155.92 269.07 157.44 269.07 167.51999999999998 C 269.07 171.77999999999997 267.82 174.1 265.65999999999997 176.46999999999997 C 261.93999999999994 180.38999999999996 256.49999999999994 180.55999999999997 250.20999999999998 180.55999999999997 C 247.52999999999997 180.55999999999997 245.55999999999997 180.83999999999997 243.96999999999997 180.96999999999997 C 242.71999999999997 181.06999999999996 241.65999999999997 180.09999999999997 241.64999999999998 178.84999999999997 L 241.28999999999996 142.24999999999997 C 241.28999999999996 141.73999999999998 241.65999999999997 141.29999999999998 242.16999999999996 141.23999999999998 L 247.39999999999995 140.54999999999998 C 248.04999999999995 140.45999999999998 248.62999999999994 140.95999999999998 248.64999999999995 141.61999999999998 Z M 248.91 175.24 L 252.31 175.24 C 258.87 175.24 261.73 173.95000000000002 261.66 167.79000000000002 C 261.6 162.10000000000002 258.41 161.03000000000003 251.92000000000002 161.03000000000003 C 250.43 161.03000000000003 250.46 160.90000000000003 249.01000000000002 160.93000000000004 L 248.91000000000003 175.25000000000003 Z" stroke-linecap="round" />
</g>
		<g transform="matrix(1 0 0 1 98.24 -24.53)"  >
<path style="stroke: none; stroke-width: 0; stroke-dasharray: none; stroke-linecap: butt; stroke-dashoffset: 0; stroke-linejoin: miter; stroke-miterlimit: 4; fill: rgb(0,0,0); fill-rule: nonzero; opacity: 1;" vector-effect="non-scaling-stroke"  transform=" translate(-299.35, -160.75)" d="M 284.27 141.74 L 284.58 157.61 L 289.96999999999997 157.65 C 290.78 149.42000000000002 295.32 140.15 306.05999999999995 140.54000000000002 C 314.54999999999995 140.85000000000002 321.74999999999994 146.73000000000002 321.74999999999994 160.26000000000002 C 321.74999999999994 176.09000000000003 312.37999999999994 180.98000000000002 305.5799999999999 180.98000000000002 C 299.50999999999993 180.98000000000002 290.3599999999999 176.25000000000003 289.88999999999993 162.92000000000002 L 284.48999999999995 162.67000000000002 L 284.54999999999995 177.42000000000002 C 284.54999999999995 177.69000000000003 284.5799999999999 177.77 284.86999999999995 178.29000000000002 C 285.16999999999996 178.84000000000003 285.22999999999996 179.76000000000002 283.50999999999993 180.17000000000002 L 281.22999999999996 180.65 C 279.15999999999997 181.04 277.34 179.67000000000002 277.34 177.57 L 276.96 142.07999999999998 C 276.87 141.6 277.35999999999996 141.14 277.88 141.1 L 282.01 140.73999999999998 C 283.24 140.73 283.94 140.51 284.28 141.71999999999997 Z M 313.9 158.94 C 313.79999999999995 153.43 310.98999999999995 145.76 305.84 145.76 C 301.07 145.76 297.26 150.92999999999998 297.23999999999995 160.76 C 297.2199999999999 170.59 302.40999999999997 175.62 305.24999999999994 175.62 C 311.47999999999996 175.62 314.0899999999999 169.29 313.8999999999999 158.94 Z" stroke-linecap="round" />
</g>
		<g transform="matrix(1 0 0 1 140.18 -24.84)"  >
<path style="stroke: none; stroke-width: 0; stroke-dasharray: none; stroke-linecap: butt; stroke-dashoffset: 0; stroke-linejoin: miter; stroke-miterlimit: 4; fill: rgb(0,0,0); fill-rule: nonzero; opacity: 1;" vector-effect="non-scaling-stroke"  transform=" translate(-341.29, -160.45)" d="M 337.62 146.12 C 333.98 146.21 330.34000000000003 146.31 326.7 146.4 C 326.15 146.41 325.53 146.4 325.15999999999997 145.99 C 324.93999999999994 145.75 324.85999999999996 145.41 324.79999999999995 145.08 C 324.61999999999995 144.07000000000002 324.56999999999994 143.03 324.66999999999996 142.01000000000002 C 324.69999999999993 141.71 324.71 141.39000000000001 324.97999999999996 141.21 C 325.29999999999995 141 325.71 140.88 326.08 140.83 C 326.4 140.79000000000002 326.72999999999996 140.78 327.05 140.78 C 335.42 140.76 343.8 140.74 352.17 140.73 C 353.22 140.73 354.29 140.85999999999999 355.29 140.51999999999998 C 355.58000000000004 140.42 355.43 140.15999999999997 356.18 140.15999999999997 C 357.13 140.15999999999997 357.63 141.34999999999997 357.82 142.27999999999997 C 357.98 143.05999999999997 358.06 143.87999999999997 357.7 144.58999999999997 C 357.11 145.76999999999998 355.53 145.95 354.2 145.96999999999997 C 351.09 146.00999999999996 347.97999999999996 146.05999999999997 344.87 146.09999999999997 C 344.92 156.06999999999996 344.98 166.04999999999995 345.03000000000003 176.01999999999998 C 345.03000000000003 176.61999999999998 345.04 177.23999999999998 345.31 177.77999999999997 C 345.44 178.02999999999997 345.62 178.25999999999996 345.68 178.53999999999996 C 345.79 179.00999999999996 345.51 179.49999999999997 345.12 179.78999999999996 C 344.73 180.07999999999996 344.25 180.18999999999997 343.78000000000003 180.30999999999997 C 342.71000000000004 180.56999999999996 341.61 180.83999999999997 340.52000000000004 180.70999999999998 C 339.43000000000006 180.57999999999998 338.32000000000005 179.98 337.90000000000003 178.96999999999997 C 337.67 178.40999999999997 337.67 177.79999999999998 337.67 177.19999999999996 C 337.64000000000004 166.83999999999997 337.62 156.46999999999997 337.58000000000004 146.10999999999996 Z" stroke-linecap="round" />
</g>
		<g transform="matrix(1 0 0 1 -140.48 -24.68)"  >
<path style="stroke: none; stroke-width: 0; stroke-dasharray: none; stroke-linecap: butt; stroke-dashoffset: 0; stroke-linejoin: miter; stroke-miterlimit: 4; fill: rgb(0,0,0); fill-rule: nonzero; opacity: 1;" vector-effect="non-scaling-stroke"  transform=" translate(-60.62, -160.61)" d="M 50.1 140.66 C 51.06 140.54 51.730000000000004 141.04 51.74 142 L 51.96 156.46 C 51.96 163.06 52.07 169.52 52.07 169.52 C 54.17 165.20000000000002 54.76 164.84 57.79 159.91000000000003 L 68.7 141.55 C 68.82000000000001 141.35000000000002 69.01 141.21 69.23 141.16000000000003 L 74.16 140.52000000000004 C 75.00999999999999 140.41000000000003 75.77 141.06000000000003 75.8 141.92000000000004 C 75.84 143.22000000000006 75.83 144.53000000000006 75.84 145.83000000000004 C 75.85000000000001 147.13000000000002 75.88000000000001 148.43000000000004 75.9 149.73000000000005 C 75.92 151.03000000000006 75.94000000000001 152.31000000000006 75.97 153.60000000000005 C 75.99999999999999 154.89000000000004 76.02 156.17000000000004 76.03999999999999 157.45000000000005 C 76.05999999999999 158.73000000000005 76.08999999999999 160.02000000000004 76.10999999999999 161.30000000000004 C 76.12999999999998 162.58000000000004 76.15999999999998 163.87000000000003 76.17999999999998 165.15000000000003 C 76.19999999999997 166.43000000000004 76.21999999999998 167.73000000000005 76.23999999999998 169.02000000000004 C 76.25999999999998 170.31000000000003 76.26999999999998 171.61000000000004 76.27999999999999 172.91000000000003 C 76.28999999999999 174.21 76.29999999999998 175.53000000000003 76.29999999999998 176.84000000000003 C 76.29999999999998 177.19000000000003 76.27999999999999 177.49000000000004 76.49999999999999 177.79000000000002 C 76.59999999999998 177.93 76.72999999999999 178.06000000000003 76.83999999999999 178.20000000000002 C 76.94999999999999 178.34 76.99999999999999 178.51000000000002 77.02 178.69000000000003 C 77.06 179.06000000000003 76.92999999999999 179.47000000000003 76.61999999999999 179.69000000000003 C 76.14999999999999 180.03000000000003 75.60999999999999 180.17000000000002 75.05999999999999 180.30000000000004 C 74.57 180.41000000000005 74.07 180.48000000000005 73.57 180.55000000000004 C 73.07 180.62000000000003 72.61 180.68000000000004 72.13 180.70000000000005 C 70.16 180.78000000000006 68.82 179.08000000000004 68.83 177.17000000000004 L 68.83 165.81000000000006 C 68.83 159.09000000000006 68.51 157.17000000000007 68.95 151.93000000000006 L 52.61 179.03000000000006 C 51.23 181.19000000000005 46.71 180.45000000000005 46.71 180.45000000000005 C 45.74 180.31000000000006 44.83 178.67000000000004 44.82 177.69000000000005 C 44.68 169.26000000000005 44.96 160.58000000000004 44.82 152.14000000000004 C 44.76 148.72000000000006 44.73 145.56000000000003 44.22 142.12000000000003 C 44.21 142.04000000000002 44.22 141.71000000000004 44.48 141.41000000000003 C 44.65 141.22000000000003 44.879999999999995 141.09000000000003 45.15 141.05 L 50.129999999999995 140.67000000000002 Z" stroke-linecap="round" />
</g>
		<g transform="matrix(1 0 0 1 180.2 -24.82)"  >
<path style="stroke: none; stroke-width: 0; stroke-dasharray: none; stroke-linecap: butt; stroke-dashoffset: 0; stroke-linejoin: miter; stroke-miterlimit: 4; fill: rgb(0,0,0); fill-rule: nonzero; opacity: 1;" vector-effect="non-scaling-stroke"  transform=" translate(-381.3, -160.47)" d="M 370.78 140.52 C 371.73999999999995 140.4 372.40999999999997 140.9 372.41999999999996 141.86 L 372.64 156.32000000000002 C 372.64 162.92000000000002 372.75 169.38000000000002 372.75 169.38000000000002 C 374.85 165.06000000000003 375.44 164.70000000000002 378.47 159.77000000000004 L 389.38000000000005 141.41000000000003 C 389.50000000000006 141.21000000000004 389.69000000000005 141.07000000000002 389.91 141.02000000000004 L 394.84000000000003 140.38000000000005 C 395.69000000000005 140.27000000000004 396.45000000000005 140.92000000000004 396.48 141.78000000000006 C 396.52000000000004 143.08000000000007 396.51 144.39000000000007 396.52000000000004 145.69000000000005 C 396.5300000000001 146.99000000000004 396.56000000000006 148.29000000000005 396.58000000000004 149.59000000000006 C 396.6 150.89000000000007 396.62000000000006 152.17000000000007 396.65000000000003 153.46000000000006 C 396.68 154.75000000000006 396.70000000000005 156.03000000000006 396.72 157.31000000000006 C 396.74 158.59000000000006 396.77000000000004 159.88000000000005 396.79 161.16000000000005 C 396.81 162.44000000000005 396.84000000000003 163.73000000000005 396.86 165.01000000000005 C 396.88 166.29000000000005 396.90000000000003 167.59000000000006 396.92 168.88000000000005 C 396.94 170.17000000000004 396.95 171.47000000000006 396.96000000000004 172.77000000000004 C 396.9700000000001 174.07000000000002 396.98 175.39000000000004 396.98 176.70000000000005 C 396.98 177.05000000000004 396.96000000000004 177.35000000000005 397.18 177.65000000000003 C 397.28000000000003 177.79000000000002 397.41 177.92000000000004 397.52 178.06000000000003 C 397.62999999999994 178.20000000000002 397.68 178.37000000000003 397.7 178.55000000000004 C 397.74 178.92000000000004 397.61 179.33000000000004 397.3 179.55000000000004 C 396.83 179.89000000000004 396.29 180.03000000000003 395.74 180.16000000000005 C 395.25 180.27000000000007 394.75 180.34000000000006 394.25 180.41000000000005 C 393.75 180.48000000000005 393.29 180.54000000000005 392.81 180.56000000000006 C 390.84 180.64000000000007 389.5 178.94000000000005 389.51 177.03000000000006 L 389.51 165.67000000000007 C 389.51 158.95000000000007 389.19 157.0300000000001 389.63 151.79000000000008 L 373.29 178.89000000000007 C 371.91 181.05000000000007 367.39000000000004 180.31000000000006 367.39000000000004 180.31000000000006 C 366.42 180.17000000000007 365.51000000000005 178.53000000000006 365.50000000000006 177.55000000000007 C 365.36000000000007 169.12000000000006 365.64000000000004 160.44000000000005 365.50000000000006 152.00000000000006 C 365.44000000000005 148.58000000000007 365.4100000000001 145.42000000000004 364.90000000000003 141.98000000000005 C 364.89000000000004 141.90000000000003 364.90000000000003 141.57000000000005 365.16 141.27000000000004 C 365.33000000000004 141.08000000000004 365.56 140.95000000000005 365.83000000000004 140.91000000000003 L 370.81000000000006 140.53000000000003 Z" stroke-linecap="round" />
</g>
		<g transform="matrix(1 0 0 1 0 12.83)"  >
<rect style="stroke: none; stroke-width: 0; stroke-dasharray: none; stroke-linecap: butt; stroke-dashoffset: 0; stroke-linejoin: miter; stroke-miterlimit: 4; fill: rgb(0,0,0); fill-rule: nonzero; opacity: 1;" vector-effect="non-scaling-stroke"  x="-201.105" y="-2.14" rx="2.14" ry="2.14" width="402.21" height="4.28" />
</g>
		<g transform="matrix(1 0 0 1 -167.99 32.81)"  >
<path style="stroke: none; stroke-width: 0; stroke-dasharray: none; stroke-linecap: butt; stroke-dashoffset: 0; stroke-linejoin: miter; stroke-miterlimit: 4; fill: rgb(0,0,0); fill-rule: nonzero; opacity: 1;" vector-effect="non-scaling-stroke"  transform=" translate(-33.12, -218.09)" d="M 29.12 218.71 C 30.220000000000002 222.84 31.490000000000002 224.38 34.74 224.38 C 36.54 224.38 37.18 223.88 38.31 223.18 C 39.330000000000005 222.55 39.25 222.22 39.89 222.49 L 41.07 223.13 C 41.4 223.56 40.59 224.26 40.26 224.69 C 39.3 225.92 36.28 227.41 33.94 227.41 C 28.439999999999998 227.41 24.779999999999998 223.74 24.779999999999998 218.35 C 24.779999999999998 212.95999999999998 28.33 208.78 33.53 208.78 C 39.36 208.78 41.45 213.27 41.45 216.55 L 41.45 217.39000000000001 C 41.45 218.21 40.230000000000004 218.70000000000002 39.410000000000004 218.70000000000002 L 29.110000000000003 218.70000000000002 Z M 37.260000000000005 215.91 C 37.300000000000004 213.84 36.36000000000001 211.66 33.290000000000006 211.66 C 31.060000000000006 211.66 29.570000000000007 213.72 29.310000000000006 215.97 L 37.260000000000005 215.91 Z" stroke-linecap="round" />
</g>
		<g transform="matrix(1 0 0 1 -79.5 32.75)"  >
<path style="stroke: none; stroke-width: 0; stroke-dasharray: none; stroke-linecap: butt; stroke-dashoffset: 0; stroke-linejoin: miter; stroke-miterlimit: 4; fill: rgb(0,0,0); fill-rule: nonzero; opacity: 1;" vector-effect="non-scaling-stroke"  transform=" translate(-121.61, -218.04)" d="M 125.18 226.58 L 125 226.13000000000002 C 124.86 225.82000000000002 124.83 225.44000000000003 124.81 225.10000000000002 L 124.76 224.3 C 123.76 225.70000000000002 122.02000000000001 227.28 119.48 227.28 C 115.86 227.28 113.68 225.2 113.68 222.62 C 113.68 218.3 118.07000000000001 216.53 124.81 215.89000000000001 L 124.77 215.06 C 124.77 213.58 124.36999999999999 211.56 121 211.49 C 119.95 211.63 119.43 211.85000000000002 118.43 212.58 C 118.06 212.85000000000002 117.56 213.66000000000003 117.53 213.97 C 117.5 214.27999999999997 117.61 214.79 116.87 214.66 L 114.89 214.21 C 114.24 213.88 114.14 212.75 114.3 212.37 C 114.73 211.34 115.98 210.36 116.27 210.21 C 117.69 209.47 119.47999999999999 208.78 121.41 208.78 C 126.86999999999999 208.78 128.98 211.23 128.94 215.65 L 128.94 221.28 C 128.94 221.36 128.72 224.66 129.27 225.9 C 129.32000000000002 226.02 129.45000000000002 226.07 129.48000000000002 226.14000000000001 C 129.62 226.43 129.50000000000003 226.72000000000003 129.10000000000002 226.86 C 129.10000000000002 226.86 127.79000000000002 227.19000000000003 127.75000000000003 227.19000000000003 L 126.65000000000003 227.29000000000002 C 126.47000000000003 227.32000000000002 126.11000000000003 227.26000000000002 125.95000000000003 227.19000000000003 C 125.77000000000002 227.10000000000002 125.53000000000003 227.05000000000004 125.16000000000003 226.59000000000003 Z M 124.79 218.3 C 120.11000000000001 218.73000000000002 117.72 220.16000000000003 117.72 221.8 C 117.72 223.9 118.84 224.41000000000003 120.5 224.41000000000003 C 122.82 224.41000000000003 123.92 221.96000000000004 124.17 221.74000000000004 C 124.94 220.54000000000005 124.79 218.30000000000004 124.79 218.30000000000004 Z" stroke-linecap="round" />
</g>
		<g transform="matrix(1 0 0 1 -14 32.73)"  >
<path style="stroke: none; stroke-width: 0; stroke-dasharray: none; stroke-linecap: butt; stroke-dashoffset: 0; stroke-linejoin: miter; stroke-miterlimit: 4; fill: rgb(0,0,0); fill-rule: nonzero; opacity: 1;" vector-effect="non-scaling-stroke"  transform=" translate(-187.11, -218.01)" d="M 182.7 209.63 C 182.7 209.63 183.04 212.31 183.04 212.32999999999998 C 183.04 212.36999999999998 183.07999999999998 216.29 183.07999999999998 216.32999999999998 L 190.91 216.32999999999998 L 190.65 209.44 C 190.65 209.19 190.83 208.98 191.08 208.96 L 194.28 208.74 C 194.65 208.71 194.79 208.98000000000002 194.79 209.35000000000002 C 194.94 210.28000000000003 195.01999999999998 211.63000000000002 195 212.59000000000003 C 194.99 213.14000000000004 194.98 213.69000000000003 194.96 214.25000000000003 C 194.95000000000002 214.86000000000004 195.04000000000002 215.48000000000002 195.03 216.09000000000003 C 195.01999999999998 216.70000000000005 195.03 217.39000000000004 195.02 218.02000000000004 C 195.01000000000002 218.65000000000003 195.02 219.25000000000003 195.02 219.88000000000005 C 195.02 220.51000000000008 195.02 221.11000000000004 195.03 221.72000000000006 C 195.04 222.26000000000005 194.95 222.78000000000006 194.98 223.32000000000005 C 195.01 223.77000000000004 195.04 224.22000000000006 195.1 224.67000000000004 C 195.14 225.00000000000006 195.14 225.35000000000005 195.23 225.67000000000004 C 195.26 225.78000000000006 195.35 225.88000000000005 195.39999999999998 225.98000000000005 C 195.42 226.02000000000004 195.48999999999998 226.06000000000006 195.51 226.09000000000006 C 195.56 226.16000000000005 195.6 226.22000000000006 195.62 226.30000000000007 C 195.64000000000001 226.38000000000008 195.58 226.53000000000006 195.54 226.60000000000008 C 195.45 226.76000000000008 194.79999999999998 226.97000000000008 194.38 227.08000000000007 C 193.96 227.19000000000005 193.69 227.22000000000006 193.25 227.27000000000007 C 193.06 227.29000000000008 192.62 227.34000000000006 192.43 227.30000000000007 C 192.28 227.27000000000007 192.14000000000001 227.24000000000007 192 227.19000000000005 C 191.53 227.01000000000005 191.18 226.68000000000006 191.07 226.15000000000006 C 191.03 225.98000000000008 191 225.83000000000007 190.95 225.66000000000005 C 190.94 225.62000000000006 190.89999999999998 225.33000000000004 190.89999999999998 225.23000000000005 C 190.89999999999998 225.01000000000005 190.86999999999998 224.78000000000006 190.86999999999998 224.56000000000006 C 190.86999999999998 224.11000000000007 190.86999999999998 223.63000000000005 190.85999999999999 223.18000000000006 C 190.85999999999999 222.35000000000005 190.89999999999998 221.54000000000008 190.89 220.71000000000006 L 190.86999999999998 219.17000000000007 C 190.86999999999998 219.17000000000007 190.86999999999998 219.12000000000006 190.86999999999998 219.10000000000008 L 183.03999999999996 219.10000000000008 C 183.04999999999995 219.45000000000007 183.03999999999996 219.8400000000001 183.04999999999995 220.20000000000007 C 183.07999999999996 221.00000000000009 183.01999999999995 221.82000000000008 183.04999999999995 222.61000000000007 C 183.07999999999996 223.40000000000006 183.04999999999995 224.15000000000006 183.07999999999996 224.96000000000006 C 183.09999999999997 225.35000000000005 183.15999999999997 225.48000000000008 183.17999999999995 225.87000000000006 C 183.17999999999995 225.89000000000007 183.28999999999996 226.24000000000007 183.28999999999996 226.26000000000005 C 183.29999999999995 226.30000000000004 183.31999999999996 226.33000000000004 183.33999999999997 226.36000000000004 C 183.51999999999998 226.75000000000003 182.82999999999998 226.97000000000006 182.57999999999998 227.04000000000005 C 182.57999999999998 227.04000000000005 181.74999999999997 227.22000000000006 181.74999999999997 227.22000000000006 L 181.17999999999998 227.24000000000007 C 180.89 227.25000000000006 180.59999999999997 227.29000000000008 180.30999999999997 227.24000000000007 C 179.81999999999996 227.16000000000005 179.42 226.82000000000008 179.18999999999997 226.40000000000006 C 178.91999999999996 225.92000000000007 178.90999999999997 225.39000000000007 178.90999999999997 224.86000000000007 C 178.90999999999997 224.72000000000008 178.90999999999997 224.59000000000006 178.90999999999997 224.45000000000007 C 178.90999999999997 223.75000000000009 178.90999999999997 223.05000000000007 178.90999999999997 222.34000000000006 C 178.90999999999997 220.93000000000006 178.90999999999997 219.51000000000005 178.90999999999997 218.10000000000005 C 178.90999999999997 216.69000000000005 178.90999999999997 215.28000000000006 178.87999999999997 213.88000000000005 C 178.87999999999997 213.64000000000004 178.87999999999997 213.41000000000005 178.85999999999996 213.17000000000004 C 178.82999999999996 211.98000000000005 178.61999999999995 210.76000000000005 178.58999999999995 209.57000000000005 C 178.58999999999995 209.53000000000006 178.58999999999995 209.37000000000006 178.70999999999995 209.23000000000005 C 178.78999999999996 209.14000000000004 178.89999999999995 209.08000000000004 179.02999999999994 209.06000000000006 L 181.84999999999994 208.72000000000006 C 182.45999999999995 208.68000000000006 182.62999999999994 208.82000000000005 182.65999999999994 209.61000000000004 Z" stroke-linecap="round" />
</g>
		<g transform="matrix(1 0 0 1 60.15 32.67)"  >
<path style="stroke: none; stroke-width: 0; stroke-dasharray: none; stroke-linecap: butt; stroke-dashoffset: 0; stroke-linejoin: miter; stroke-miterlimit: 4; fill: rgb(0,0,0); fill-rule: nonzero; opacity: 1;" vector-effect="non-scaling-stroke"  transform=" translate(-261.26, -217.95)" d="M 256.31 208.72 C 256.65 208.72 257.2 209.1 257.2 209.44 L 257.57 216.14 L 263.99 209.16 C 264.11 209.03 264.36 208.85 264.54 208.85 L 267.18 208.85 C 268.35 208.71 267.96 209.53 267.59000000000003 209.92 L 260.79 217.58999999999997 C 260.79 217.58999999999997 267.49 224.52999999999997 269.27000000000004 226.17999999999998 C 269.6 226.48999999999998 268.44000000000005 227.10999999999999 267.15000000000003 227.20999999999998 L 265.6 227.07 C 264.96000000000004 226.93 264.29 226.47 264.15000000000003 226.29999999999998 C 263.34000000000003 225.33999999999997 257.51000000000005 219.27999999999997 257.51000000000005 219.27999999999997 L 257.61000000000007 226.54999999999998 C 257.61000000000007 226.89 256.20000000000005 227.2 255.86000000000007 227.2 L 254.66000000000008 227.2 C 254.32000000000008 227.2 253.4900000000001 226.51 253.4900000000001 226.17 L 253.19000000000008 209.45999999999998 C 253.19000000000008 209.11999999999998 253.47000000000008 208.83999999999997 253.8100000000001 208.83999999999997 L 256.31000000000006 208.7 Z" stroke-linecap="round" />
</g>
		<g transform="matrix(1 0 0 1 80.26 36.82)"  >
<path style="stroke: none; stroke-width: 0; stroke-dasharray: none; stroke-linecap: butt; stroke-dashoffset: 0; stroke-linejoin: miter; stroke-miterlimit: 4; fill: rgb(0,0,0); fill-rule: nonzero; opacity: 1;" vector-effect="non-scaling-stroke"  transform=" translate(-281.36, -222.11)" d="M 273.2 215.03 C 273.2 213 273.03 211.2 272.87 209.63 C 272.84000000000003 209.31 273.08 209.01999999999998 273.4 209 L 276.34999999999997 208.75 C 276.61999999999995 208.71 276.87999999999994 208.89 276.91999999999996 209.17 L 277.31999999999994 211.82 C 278.6499999999999 209.64 280.2699999999999 208.6 283.17999999999995 208.73999999999998 C 287.53999999999996 208.95 289.85999999999996 212.39 289.85999999999996 217.82 C 289.85999999999996 224.23999999999998 284.96999999999997 226.84 282.44999999999993 227.23999999999998 C 280.11999999999995 227.60999999999999 277.31999999999994 226.39999999999998 277.31999999999994 226.39999999999998 C 277.31999999999994 226.98 277.31999999999994 227.56999999999996 277.31999999999994 228.14999999999998 C 277.31999999999994 229.29999999999998 277.31999999999994 230.45 277.3299999999999 231.59999999999997 C 277.3299999999999 232.10999999999996 277.3299999999999 232.60999999999996 277.3299999999999 233.11999999999998 C 277.3299999999999 233.35999999999999 277.30999999999995 233.58999999999997 277.30999999999995 233.82999999999998 C 277.30999999999995 234.07999999999998 277.35999999999996 234.26999999999998 277.44999999999993 234.42999999999998 C 277.49999999999994 234.51999999999998 277.6499999999999 234.55999999999997 277.62999999999994 234.79 C 277.60999999999996 234.95999999999998 277.38999999999993 235.13 277.23999999999995 235.19 C 276.91999999999996 235.32 276.25999999999993 235.46 275.7699999999999 235.49 C 275.44999999999993 235.51000000000002 275.1599999999999 235.48000000000002 274.8399999999999 235.48000000000002 C 274.0899999999999 235.48000000000002 273.2099999999999 234.70000000000002 273.2099999999999 233.79000000000002 L 273.17999999999995 215.04000000000002 Z M 277.7 223.8 C 278.34 224.07000000000002 279.72999999999996 224.5 280.3 224.52 C 282.07 224.58 283.21000000000004 224.20000000000002 284.23 222.70000000000002 C 285.28000000000003 221.16000000000003 285.6 219.21 285.49 217.38000000000002 C 285.37 215.24000000000004 284.76 211.49000000000004 281.33 211.49000000000004 C 279.69 211.49000000000004 278.46 213.78000000000003 277.71 215.16000000000003 C 277.2 216.10000000000002 277.09 223.54000000000002 277.69 223.8 Z" stroke-linecap="round" />
</g>
		<g transform="matrix(1 0 0 1 -148.8 33.31)"  >
<path style="stroke: none; stroke-width: 0; stroke-dasharray: none; stroke-linecap: butt; stroke-dashoffset: 0; stroke-linejoin: miter; stroke-miterlimit: 4; fill: rgb(0,0,0); fill-rule: nonzero; opacity: 1;" vector-effect="non-scaling-stroke"  transform=" translate(-52.3, -218.6)" d="M 44.1 208.97 C 44.26 208.85999999999999 44.46 208.81 44.65 208.78 C 44.809999999999995 208.76 44.97 208.76 45.14 208.76 C 49.33 208.76 53.51 208.73999999999998 57.7 208.73 C 58.230000000000004 208.73 58.760000000000005 208.79999999999998 59.260000000000005 208.63 C 59.410000000000004 208.57999999999998 59.330000000000005 208.45 59.71000000000001 208.45 C 60.18000000000001 208.45 60.440000000000005 209.04999999999998 60.53000000000001 209.51 C 60.61000000000001 209.89999999999998 60.650000000000006 210.31 60.470000000000006 210.67 C 60.18000000000001 211.26 59.38 211.35 58.720000000000006 211.35999999999999 C 57.17000000000001 211.38 55.61000000000001 211.39999999999998 54.06 211.42999999999998 C 54.09 216.42 54.11 221.39999999999998 54.14 226.39 C 54.14 226.69 54.14 227 54.28 227.26999999999998 C 54.34 227.39999999999998 54.44 227.51 54.47 227.64999999999998 C 54.519999999999996 227.89 54.379999999999995 228.12999999999997 54.19 228.26999999999998 C 54 228.41 53.75 228.46999999999997 53.519999999999996 228.52999999999997 C 52.989999999999995 228.65999999999997 52.44 228.78999999999996 51.88999999999999 228.72999999999996 C 51.33999999999999 228.66999999999996 50.78999999999999 228.36999999999995 50.57999999999999 227.85999999999996 C 50.46999999999999 227.57999999999996 50.459999999999994 227.26999999999995 50.459999999999994 226.96999999999997 C 50.449999999999996 221.78999999999996 50.42999999999999 216.60999999999996 50.419999999999995 211.42999999999998 C 48.599999999999994 211.48 46.779999999999994 211.51999999999998 44.959999999999994 211.56999999999996 C 44.68999999999999 211.56999999999996 44.379999999999995 211.56999999999996 44.18999999999999 211.36999999999998 C 44.07999999999999 211.24999999999997 44.03999999999999 211.07999999999998 44.00999999999999 210.92" stroke-linecap="round" />
</g>
		<g transform="matrix(1 0 0 1 -129.04 32.71)"  >
<path style="stroke: none; stroke-width: 0; stroke-dasharray: none; stroke-linecap: butt; stroke-dashoffset: 0; stroke-linejoin: miter; stroke-miterlimit: 4; fill: rgb(0,0,0); fill-rule: nonzero; opacity: 1;" vector-effect="non-scaling-stroke"  transform=" translate(-72.06, -218)" d="M 68.46 209.11 L 68.83 215.62 C 69.47 215.52 71.72 215.58 72.45 215.58 C 74.13000000000001 215.58 79.45 216.37 79.45 221.15 C 79.45 223.17000000000002 78.95 224.43 77.34 225.37 C 75.42 226.88 72.67 227.23000000000002 69.69 227.23000000000002 C 68.42 227.23000000000002 66.00999999999999 227.28000000000003 65.61 226.95000000000002 C 65.12 226.55 64.83 225.94000000000003 64.82 225.3 L 64.66999999999999 209.45000000000002 C 64.66999999999999 209.28000000000003 64.76999999999998 209.12 64.93999999999998 209.09 C 65.50999999999998 208.96 65.59999999999998 208.98 65.80999999999999 208.95000000000002 L 67.63999999999999 208.77 C 67.94999999999999 208.73000000000002 68.47999999999999 208.81 68.47999999999999 209.12 Z M 68.83 224.5 C 69.48 224.5 70.01 224.46 70.97 224.46 C 74.08 224.46 75.12 223.44 75.12 221.16 C 75.12 219.52 73.86 218.16 70.78 218.16 C 70.07000000000001 218.16 69.52 218.23 68.83 218.24 L 68.83 224.49 Z" stroke-linecap="round" />
</g>
		<g transform="matrix(1 0 0 1 -58.51 32.9)"  >
<path style="stroke: none; stroke-width: 0; stroke-dasharray: none; stroke-linecap: butt; stroke-dashoffset: 0; stroke-linejoin: miter; stroke-miterlimit: 4; fill: rgb(0,0,0); fill-rule: nonzero; opacity: 1;" vector-effect="non-scaling-stroke"  transform=" translate(-142.6, -218.19)" d="M 151.19 225.7 C 151.22 225.79 151.27 225.86999999999998 151.34 225.95999999999998 C 151.51 226.15999999999997 151.72 226.40999999999997 151.49 226.65999999999997 C 151.42000000000002 226.73999999999998 151.32000000000002 226.78999999999996 151.22 226.82999999999996 C 150.79 226.99999999999994 150.34 227.10999999999996 149.88 227.17999999999995 C 149.5 227.23999999999995 149.12 227.28999999999996 148.74 227.29999999999995 C 148.20000000000002 227.31999999999996 147.69 227.17999999999995 147.33 226.74999999999994 C 147.10000000000002 226.47999999999993 146.97 226.12999999999994 146.91000000000003 225.77999999999994 C 146.84000000000003 225.38999999999996 146.84000000000003 224.99999999999994 146.83 224.60999999999996 C 146.82 224.21999999999997 146.83 223.79999999999995 146.83 223.38999999999996 C 146.83 222.67999999999995 146.83 221.97999999999996 146.83 221.26999999999995 C 146.83 219.88999999999996 146.82000000000002 218.42999999999995 146.83 217.04999999999995 C 146.84 215.66999999999996 146.83 214.41999999999996 146.79000000000002 213.01999999999995 C 146.78000000000003 212.62999999999997 146.79000000000002 212.15999999999994 146.79000000000002 211.76999999999995 C 146.79000000000002 211.72999999999996 146.79000000000002 211.67999999999995 146.79000000000002 211.63999999999996 L 141.20000000000002 211.65999999999997 C 141.00000000000003 211.65999999999997 141.20000000000002 217.09999999999997 141.20000000000002 217.09999999999997 C 141.01000000000002 223.49999999999997 139.51000000000002 226.09999999999997 137.22000000000003 227.04999999999995 C 136.42000000000002 227.32999999999996 135.49000000000004 227.53999999999996 134.80000000000004 227.13999999999996 C 134.51000000000005 226.97999999999996 134.14000000000004 226.76999999999995 133.97000000000003 226.47999999999996 C 133.79000000000002 226.17999999999995 133.63000000000002 225.74999999999997 133.61 225.39999999999995 C 133.59 225.11999999999995 133.61 224.76999999999995 133.95000000000002 224.68999999999994 C 134.09 224.65999999999994 134.24 224.68999999999994 134.38000000000002 224.68999999999994 C 134.91000000000003 224.65999999999994 135.73000000000002 224.07999999999993 136.11 223.44999999999993 C 136.35000000000002 223.06999999999994 136.59 222.67999999999992 136.72000000000003 222.24999999999994 C 137.00000000000003 221.29999999999995 137.10000000000002 220.05999999999995 137.25000000000003 218.94999999999993 C 137.32000000000002 218.43999999999994 137.32000000000002 217.75999999999993 137.32000000000002 217.24999999999994 L 136.96 209.88999999999993 C 136.94 209.67999999999992 137.12 209.24999999999994 137.33 209.24999999999994 L 150.19 209.01999999999995 C 150.38 209.01999999999995 150.76 209.16999999999996 150.81 209.44999999999996 C 150.86 210.48999999999995 150.93 211.17999999999995 150.97 212.21999999999997 C 151.01 213.30999999999997 150.93 214.48999999999998 150.97 215.57999999999998 C 151.01 216.67 150.97 217.67 151.02 218.73999999999998 C 151.05 219.7 150.88000000000002 220.55999999999997 150.92000000000002 221.51 C 150.95000000000002 222.28 150.98000000000002 223.04999999999998 151.02 223.82 C 151.05 224.32 151.07000000000002 224.82 151.12 225.31 C 151.13 225.45 151.15 225.59 151.20000000000002 225.71 Z" stroke-linecap="round" />
</g>
		<g transform="matrix(1 0 0 1 -36.11 32.67)"  >
<path style="stroke: none; stroke-width: 0; stroke-dasharray: none; stroke-linecap: butt; stroke-dashoffset: 0; stroke-linejoin: miter; stroke-miterlimit: 4; fill: rgb(0,0,0); fill-rule: nonzero; opacity: 1;" vector-effect="non-scaling-stroke"  transform=" translate(-165, -217.96)" d="M 165 208.69 C 160.41 208.69 156.27 212.18 156.06 217.96 C 155.87 223.08 159.22 227.21 165 227.23000000000002 C 170.29 227.25000000000003 173.94 223.08 173.94 217.96 C 173.94 211.29000000000002 169.59 208.69 165 208.69 Z M 165 224.54 C 162.54 224.54 160.27 221.76 160.37 217.79 C 160.45000000000002 214.29999999999998 162.25 211.54999999999998 164.89000000000001 211.42999999999998 C 167.47000000000003 211.31999999999996 169.35000000000002 214.46999999999997 169.45000000000002 217.95999999999998 C 169.57000000000002 222.2 167.46 224.54 165.00000000000003 224.54 Z" stroke-linecap="round" />
</g>
		<g transform="matrix(1 0 0 1 7.73 32.75)"  >
<path style="stroke: none; stroke-width: 0; stroke-dasharray: none; stroke-linecap: butt; stroke-dashoffset: 0; stroke-linejoin: miter; stroke-miterlimit: 4; fill: rgb(0,0,0); fill-rule: nonzero; opacity: 1;" vector-effect="non-scaling-stroke"  transform=" translate(-208.84, -218.04)" d="M 208.84 208.77 C 204.25 208.77 200.11 212.26000000000002 199.9 218.04000000000002 C 199.71 223.16000000000003 203.06 227.29000000000002 208.84 227.31000000000003 C 214.13 227.33000000000004 217.78 223.16000000000003 217.78 218.04000000000002 C 217.78 211.37000000000003 213.43 208.77 208.84 208.77 Z M 208.84 224.62 C 206.38 224.62 204.11 221.84 204.21 217.87 C 204.29000000000002 214.38 206.09 211.63 208.73000000000002 211.51 C 211.31000000000003 211.39999999999998 213.19000000000003 214.54999999999998 213.29000000000002 218.04 C 213.41000000000003 222.28 211.3 224.62 208.84000000000003 224.62 Z" stroke-linecap="round" />
</g>
		<g transform="matrix(1 0 0 1 142.56 32.52)"  >
<path style="stroke: none; stroke-width: 0; stroke-dasharray: none; stroke-linecap: butt; stroke-dashoffset: 0; stroke-linejoin: miter; stroke-miterlimit: 4; fill: rgb(0,0,0); fill-rule: nonzero; opacity: 1;" vector-effect="non-scaling-stroke"  transform=" translate(-343.67, -217.81)" d="M 343.67 208.54 C 339.08000000000004 208.54 334.94 212.03 334.73 217.81 C 334.54 222.93 337.89000000000004 227.06 343.67 227.08 C 348.96000000000004 227.10000000000002 352.61 222.93 352.61 217.81 C 352.61 211.14000000000001 348.26 208.54 343.67 208.54 Z M 343.67 224.39 C 341.21000000000004 224.39 338.94 221.60999999999999 339.04 217.64 C 339.12 214.14999999999998 340.92 211.39999999999998 343.56 211.27999999999997 C 346.14 211.16999999999996 348.02 214.31999999999996 348.12 217.80999999999997 C 348.24 222.04999999999998 346.13 224.39 343.67 224.39 Z" stroke-linecap="round" />
</g>
		<g transform="matrix(1 0 0 1 161.43 33.31)"  >
<path style="stroke: none; stroke-width: 0; stroke-dasharray: none; stroke-linecap: butt; stroke-dashoffset: 0; stroke-linejoin: miter; stroke-miterlimit: 4; fill: rgb(0,0,0); fill-rule: nonzero; opacity: 1;" vector-effect="non-scaling-stroke"  transform=" translate(-362.53, -218.6)" d="M 354.33 208.97 C 354.49 208.85999999999999 354.69 208.81 354.88 208.78 C 355.04 208.76 355.2 208.76 355.37 208.76 C 359.56 208.76 363.74 208.73999999999998 367.93 208.73 C 368.46 208.73 368.99 208.79999999999998 369.49 208.63 C 369.64 208.57999999999998 369.56 208.45 369.94 208.45 C 370.41 208.45 370.67 209.04999999999998 370.76 209.51 C 370.84 209.89999999999998 370.88 210.31 370.7 210.67 C 370.40999999999997 211.26 369.61 211.35 368.95 211.35999999999999 C 367.4 211.38 365.84 211.39999999999998 364.28999999999996 211.42999999999998 C 364.31999999999994 216.42 364.34 221.39999999999998 364.36999999999995 226.39 C 364.36999999999995 226.69 364.36999999999995 227 364.50999999999993 227.26999999999998 C 364.56999999999994 227.39999999999998 364.66999999999996 227.51 364.69999999999993 227.64999999999998 C 364.74999999999994 227.89 364.60999999999996 228.12999999999997 364.41999999999996 228.26999999999998 C 364.22999999999996 228.41 363.97999999999996 228.46999999999997 363.74999999999994 228.52999999999997 C 363.21999999999997 228.65999999999997 362.66999999999996 228.78999999999996 362.11999999999995 228.72999999999996 C 361.56999999999994 228.66999999999996 361.0199999999999 228.36999999999995 360.80999999999995 227.85999999999996 C 360.69999999999993 227.57999999999996 360.68999999999994 227.26999999999995 360.68999999999994 226.96999999999997 C 360.67999999999995 221.78999999999996 360.65999999999997 216.60999999999996 360.6499999999999 211.42999999999998 C 358.8299999999999 211.48 357.00999999999993 211.51999999999998 355.18999999999994 211.56999999999996 C 354.91999999999996 211.56999999999996 354.60999999999996 211.56999999999996 354.41999999999996 211.36999999999998 C 354.30999999999995 211.24999999999997 354.27 211.07999999999998 354.23999999999995 210.92" stroke-linecap="round" />
</g>
		<g transform="matrix(1 0 0 1 181.51 32.63)"  >
<path style="stroke: none; stroke-width: 0; stroke-dasharray: none; stroke-linecap: butt; stroke-dashoffset: 0; stroke-linejoin: miter; stroke-miterlimit: 4; fill: rgb(0,0,0); fill-rule: nonzero; opacity: 1;" vector-effect="non-scaling-stroke"  transform=" translate(-382.61, -217.91)" d="M 379.11 209.26 C 379.11 209.26 379.45 211.73999999999998 379.49 212.14999999999998 C 379.55 212.86999999999998 379.57 215.58999999999997 379.57 215.59999999999997 C 379.77 215.59999999999997 380.07 215.57999999999996 380.44 215.56999999999996 C 381.18 215.55999999999997 381.73 215.56999999999996 382.3 215.56999999999996 C 384.09000000000003 215.56999999999996 390.17 216.04999999999995 390.17 221.12999999999997 C 390.17 222.54999999999995 389.66 223.56999999999996 388.99 224.43999999999997 C 388.25 225.41999999999996 387.22 226.15999999999997 386.04 226.49999999999997 C 384.35 226.98999999999998 382.27000000000004 227.11999999999998 380.02000000000004 227.11999999999998 C 378.67 227.11999999999998 377.65000000000003 227.02999999999997 376.85 227.09999999999997 C 376.22 227.14999999999998 375.44 226.03999999999996 375.44 225.40999999999997 C 375.44 225.29999999999995 375.34 212.86999999999998 375.34 212.76999999999998 C 375.34 212.76999999999998 375.14 209.95 375.14 209.93999999999997 C 375.12 209.86999999999998 375.02 209.61999999999998 375.07 209.38999999999996 C 375.09999999999997 209.22999999999996 375.23 209.11999999999995 375.53 209.06999999999996 L 378.65999999999997 208.70999999999995 C 378.96999999999997 208.70999999999995 379.09 208.90999999999994 379.09999999999997 209.23999999999995 Z M 379.47 224.54 C 380.16 224.54 380.24 224.51999999999998 381.26000000000005 224.51999999999998 C 384.57000000000005 224.51999999999998 385.77000000000004 223.29 385.75000000000006 221.11999999999998 C 385.74000000000007 219.32999999999998 384.25000000000006 218.12999999999997 380.9800000000001 218.12999999999997 C 380.2300000000001 218.12999999999997 380.24000000000007 218.15999999999997 379.51000000000005 218.17999999999998 L 379.46000000000004 224.54999999999998 Z" stroke-linecap="round" />
</g>
		<g transform="matrix(1 0 0 1 193.07 32.74)"  >
<path style="stroke: none; stroke-width: 0; stroke-dasharray: none; stroke-linecap: butt; stroke-dashoffset: 0; stroke-linejoin: miter; stroke-miterlimit: 4; fill: rgb(0,0,0); fill-rule: nonzero; opacity: 1;" vector-effect="non-scaling-stroke"  transform=" translate(-394.18, -218.03)" d="M 395.22 227.16 C 394.8 227.24 394.22 227.32999999999998 393.79 227.32999999999998 C 392.77000000000004 227.32999999999998 392.11 226.57 392.02000000000004 225.49999999999997 C 392.02000000000004 225.25999999999996 392.02000000000004 225.00999999999996 392.02000000000004 224.76999999999998 L 392.02000000000004 222.82999999999998 C 392.01000000000005 221.92 392.00000000000006 221.01 392.00000000000006 220.08999999999997 L 391.9800000000001 216.95 L 391.9600000000001 213.82 C 391.9600000000001 212.91 391.8900000000001 211.95999999999998 391.80000000000007 211.04999999999998 C 391.76000000000005 210.64999999999998 391.63000000000005 210.11999999999998 391.63000000000005 209.63 C 391.63000000000005 209.39 391.6000000000001 209.63 391.65000000000003 209.38 C 391.67 209.26999999999998 391.72 209.19 391.93 209.12 C 391.98 209.12 392.28000000000003 209.01 392.33 209.01 C 392.46999999999997 209.01 392.71 208.94 392.84999999999997 208.92999999999998 C 393.42999999999995 208.89 393.98999999999995 208.77999999999997 394.78999999999996 208.73 C 394.96999999999997 208.72 395.33 208.73 395.51 208.73 C 395.59999999999997 208.73 395.88 209.06 395.89 209.17999999999998 C 395.95 210.83999999999997 396.06 211.67 396.06 213.26 L 396.06 222.42 C 396.06 223.30999999999997 396.04 224.30999999999997 396.15 225.19 C 396.17999999999995 225.42 396.4 225.85999999999999 396.62 226.14 Q 396.74 226.29999999999998 396.72 226.5 C 396.68 226.81 395.56 227.09 395.22 227.16 Z" stroke-linecap="round" />
</g>
		<g transform="matrix(1 0 0 1 101.07 32.72)"  >
<path style="stroke: none; stroke-width: 0; stroke-dasharray: none; stroke-linecap: butt; stroke-dashoffset: 0; stroke-linejoin: miter; stroke-miterlimit: 4; fill: rgb(0,0,0); fill-rule: nonzero; opacity: 1;" vector-effect="non-scaling-stroke"  transform=" translate(-302.18, -218.01)" d="M 305.75 226.55 L 305.57 226.10000000000002 C 305.43 225.79000000000002 305.4 225.41000000000003 305.38 225.07000000000002 L 305.33 224.27 C 304.33 225.67000000000002 302.59 227.25 300.05 227.25 C 296.43 227.25 294.25 225.17 294.25 222.59 C 294.25 218.27 298.64 216.5 305.38 215.86 L 305.34 215.03 C 305.34 213.55 304.94 211.53 301.57 211.46 C 300.52 211.6 300 211.82000000000002 299 212.55 C 298.63 212.82000000000002 298.13 213.63000000000002 298.1 213.94 C 298.07000000000005 214.24999999999997 298.18 214.76 297.44 214.63 L 295.46 214.18 C 294.81 213.85 294.71 212.72 294.87 212.34 C 295.3 211.31 296.55 210.33 296.84000000000003 210.18 C 298.26000000000005 209.44 300.05 208.75 301.98 208.75 C 307.44 208.75 309.55 211.2 309.51 215.62 L 309.51 221.25 C 309.51 221.33 309.28999999999996 224.63 309.84 225.87 C 309.89 225.99 310.02 226.04 310.04999999999995 226.11 C 310.18999999999994 226.4 310.06999999999994 226.69000000000003 309.66999999999996 226.83 C 309.66999999999996 226.83 308.35999999999996 227.16000000000003 308.31999999999994 227.16000000000003 L 307.2199999999999 227.26000000000002 C 307.0399999999999 227.29000000000002 306.6799999999999 227.23000000000002 306.5199999999999 227.16000000000003 C 306.3399999999999 227.07000000000002 306.0999999999999 227.02000000000004 305.7299999999999 226.56000000000003 Z M 305.36 218.27 C 300.68 218.70000000000002 298.29 220.13000000000002 298.29 221.77 C 298.29 223.87 299.41 224.38000000000002 301.07 224.38000000000002 C 303.39 224.38000000000002 304.49 221.93000000000004 304.74 221.71000000000004 C 305.51 220.51000000000005 305.36 218.27000000000004 305.36 218.27000000000004 Z" stroke-linecap="round" />
</g>
		<g transform="matrix(1 0 0 1 -187.59 32.89)"  >
<path style="stroke: none; stroke-width: 0; stroke-dasharray: none; stroke-linecap: butt; stroke-dashoffset: 0; stroke-linejoin: miter; stroke-miterlimit: 4; fill: rgb(0,0,0); fill-rule: nonzero; opacity: 1;" vector-effect="non-scaling-stroke"  transform=" translate(-13.51, -218.18)" d="M 20.67 222.61 C 20.82 222.68 20.970000000000002 222.76000000000002 21.1 222.84 C 21.25 222.93 21.41 223.03 21.490000000000002 223.18 C 21.650000000000002 223.48000000000002 21.46 223.84 21.26 224.11 C 20.240000000000002 225.48000000000002 18.75 226.47000000000003 17.12 226.98000000000002 C 14.860000000000001 227.69000000000003 12.280000000000001 227.54000000000002 10.13 226.53000000000003 C 10.07 226.50000000000003 10 226.47000000000003 9.940000000000001 226.44000000000003 C 8.280000000000001 225.61 6.850000000000001 224.12000000000003 6.1400000000000015 222.40000000000003 C 5.380000000000002 220.54000000000002 5.340000000000002 218.50000000000003 5.660000000000002 216.54000000000002 C 5.840000000000002 215.40000000000003 6.160000000000002 214.26000000000002 6.700000000000002 213.24 C 7.1800000000000015 212.32000000000002 7.860000000000002 211.5 8.660000000000002 210.82000000000002 C 11.190000000000001 208.65000000000003 15.640000000000002 208.40000000000003 18.550000000000004 209.83 C 19.410000000000004 210.25 20.240000000000006 210.82000000000002 20.820000000000004 211.59 C 21.350000000000005 212.3 21.860000000000003 213.53 21.200000000000003 214.31 C 20.930000000000003 214.63 20.550000000000004 214.83 20.160000000000004 214.95 C 19.770000000000003 215.06999999999996 19.350000000000005 215.10999999999999 18.940000000000005 215.14 C 18.000000000000004 215.23 17.930000000000003 213.7 17.480000000000004 213.10999999999999 C 16.980000000000004 212.45999999999998 16.660000000000004 212.23999999999998 15.940000000000005 211.92 C 14.170000000000005 211.14 11.910000000000004 212.04999999999998 10.980000000000004 213.69 C 9.550000000000004 216.22 9.380000000000004 219.54 10.780000000000005 222.13 C 11.250000000000005 222.99 11.930000000000005 223.75 12.790000000000004 224.22 C 14.210000000000004 224.98 15.980000000000004 224.84 17.460000000000004 224.22 C 18.010000000000005 223.99 18.550000000000004 223.69 18.940000000000005 223.24 C 19.160000000000004 222.98000000000002 19.350000000000005 222.67000000000002 19.660000000000004 222.53 C 19.990000000000002 222.38 20.340000000000003 222.47 20.680000000000003 222.62 Z" stroke-linecap="round" />
</g>
		<g transform="matrix(1 0 0 1 -98.88 33.3)"  >
<path style="stroke: none; stroke-width: 0; stroke-dasharray: none; stroke-linecap: butt; stroke-dashoffset: 0; stroke-linejoin: miter; stroke-miterlimit: 4; fill: rgb(0,0,0); fill-rule: nonzero; opacity: 1;" vector-effect="non-scaling-stroke"  transform=" translate(-102.22, -218.59)" d="M 109.38 223.02 C 109.53 223.09 109.67999999999999 223.17000000000002 109.81 223.25 C 109.96000000000001 223.34 110.12 223.44 110.2 223.59 C 110.36 223.89000000000001 110.17 224.25 109.97 224.52 C 108.95 225.89000000000001 107.46 226.88000000000002 105.83 227.39000000000001 C 103.57 228.10000000000002 100.99 227.95000000000002 98.84 226.94000000000003 C 98.78 226.91000000000003 98.71000000000001 226.88000000000002 98.65 226.85000000000002 C 96.99000000000001 226.02 95.56 224.53000000000003 94.85000000000001 222.81000000000003 C 94.09 220.95000000000002 94.05000000000001 218.91000000000003 94.37 216.95000000000002 C 94.55000000000001 215.81000000000003 94.87 214.67000000000002 95.41000000000001 213.65 C 95.89000000000001 212.73000000000002 96.57000000000001 211.91 97.37 211.23000000000002 C 99.9 209.06000000000003 104.35000000000001 208.81000000000003 107.26 210.24 C 108.12 210.66 108.95 211.23000000000002 109.53 212 C 110.06 212.71 110.57000000000001 213.94 109.91 214.72 C 109.64 215.04 109.25999999999999 215.24 108.86999999999999 215.35999999999999 C 108.47999999999999 215.47999999999996 108.05999999999999 215.51999999999998 107.64999999999999 215.54999999999998 C 106.71 215.64 106.63999999999999 214.10999999999999 106.19 213.51999999999998 C 105.69 212.86999999999998 105.37 212.64999999999998 104.64999999999999 212.32999999999998 C 102.88 211.54999999999998 100.61999999999999 212.45999999999998 99.69 214.1 C 98.25999999999999 216.63 98.09 219.95 99.49 222.54 C 99.96 223.4 100.64 224.16 101.5 224.63 C 102.92 225.39 104.69 225.25 106.17 224.63 C 106.72 224.4 107.26 224.1 107.65 223.65 C 107.87 223.39000000000001 108.06 223.08 108.37 222.94 C 108.7 222.79 109.05000000000001 222.88 109.39 223.03 Z" stroke-linecap="round" />
</g>
		<g transform="matrix(1 0 0 1 122.28 32.99)"  >
<path style="stroke: none; stroke-width: 0; stroke-dasharray: none; stroke-linecap: butt; stroke-dashoffset: 0; stroke-linejoin: miter; stroke-miterlimit: 4; fill: rgb(0,0,0); fill-rule: nonzero; opacity: 1;" vector-effect="non-scaling-stroke"  transform=" translate(-323.38, -218.28)" d="M 330.54 222.71 C 330.69 222.78 330.84000000000003 222.86 330.97 222.94 C 331.12 223.03 331.28000000000003 223.13 331.36 223.28 C 331.52000000000004 223.58 331.33000000000004 223.94 331.13 224.21 C 330.11 225.58 328.62 226.57000000000002 326.99 227.08 C 324.73 227.79000000000002 322.15000000000003 227.64000000000001 320 226.63000000000002 C 319.94 226.60000000000002 319.87 226.57000000000002 319.81 226.54000000000002 C 318.15 225.71 316.72 224.22000000000003 316.01 222.50000000000003 C 315.25 220.64000000000001 315.21 218.60000000000002 315.53 216.64000000000001 C 315.71 215.50000000000003 316.03 214.36 316.57 213.34 C 317.05 212.42000000000002 317.73 211.6 318.53 210.92000000000002 C 321.05999999999995 208.75000000000003 325.51 208.50000000000003 328.41999999999996 209.93 C 329.28 210.35 330.10999999999996 210.92000000000002 330.68999999999994 211.69 C 331.2199999999999 212.4 331.72999999999996 213.63 331.06999999999994 214.41 C 330.79999999999995 214.73 330.41999999999996 214.93 330.0299999999999 215.04999999999998 C 329.6399999999999 215.16999999999996 329.2199999999999 215.20999999999998 328.8099999999999 215.23999999999998 C 327.8699999999999 215.32999999999998 327.7999999999999 213.79999999999998 327.3499999999999 213.20999999999998 C 326.8499999999999 212.55999999999997 326.5299999999999 212.33999999999997 325.8099999999999 212.01999999999998 C 324.0399999999999 211.23999999999998 321.7799999999999 212.14999999999998 320.8499999999999 213.79 C 319.4199999999999 216.32 319.2499999999999 219.64 320.6499999999999 222.23 C 321.11999999999995 223.09 321.7999999999999 223.85 322.6599999999999 224.32 C 324.0799999999999 225.07999999999998 325.8499999999999 224.94 327.3299999999999 224.32 C 327.87999999999994 224.09 328.4199999999999 223.79 328.80999999999995 223.34 C 329.03 223.08 329.21999999999997 222.77 329.53 222.63 C 329.85999999999996 222.48 330.21 222.57 330.54999999999995 222.72 Z" stroke-linecap="round" />
</g>
		<g transform="matrix(1 0 0 1 27 33.29)"  >
<path style="stroke: none; stroke-width: 0; stroke-dasharray: none; stroke-linecap: butt; stroke-dashoffset: 0; stroke-linejoin: miter; stroke-miterlimit: 4; fill: rgb(0,0,0); fill-rule: nonzero; opacity: 1;" vector-effect="non-scaling-stroke"  transform=" translate(-228.11, -218.58)" d="M 220.43 210.39 C 220.38 209.92 220.6 209.75 221.02 209.7 C 222.53 209.53 225.3 209.41 226.77 209.41 C 229.28 209.41 231.48000000000002 209.53 233.20000000000002 210.81 C 234.21 211.56 234.88000000000002 212.51 234.93 214.39000000000001 C 235 216.68 232.86 218.11 232.86 218.11 C 234.68 218.81 236.24 220.98000000000002 235.67000000000002 223.48000000000002 C 235.3 225.11 234.60000000000002 225.48000000000002 233.62 226.43 C 232.27 227.67000000000002 229.33 227.74 226.16 227.74 C 225.03 227.74 223.16 227.79000000000002 222.21 227.70000000000002 C 221.38 227.63000000000002 220.95000000000002 226.87 220.78 226.00000000000003 C 220.7 225.59000000000003 220.75 225.12000000000003 220.74 224.70000000000002 C 220.71 223.62 220.79000000000002 222.28000000000003 220.76000000000002 221.20000000000002 C 220.68 218.60000000000002 220.82000000000002 216.33 220.74 213.74 C 220.71 212.68 220.51000000000002 211.22 220.43 210.38 Z M 224.88 217.08999999999997 L 227.01 217.04999999999998 C 229.73999999999998 217.17999999999998 230.84 216.04 230.72 214.49999999999997 C 230.6 212.95999999999995 229.6 212.10999999999999 227.07 212.10999999999999 C 225.92 212.10999999999999 225.18 212.13 224.76999999999998 212.10999999999999 L 224.88 217.07999999999998 Z M 224.82 225.03999999999996 C 225.31 225.12999999999997 226.03 225.11999999999998 226.93 225.11999999999998 C 229.52 225.11999999999998 231.23000000000002 224.7 231.4 222.64999999999998 C 231.59 220.34999999999997 229.81 219.61999999999998 227.07 219.61999999999998 L 224.82 219.61999999999998 L 224.82 225.03999999999996 Z" stroke-linecap="round" />
</g>
</g>
</g>
</svg>